<svg xmlns="http://www.w3.org/2000/svg"  viewBox="0 0 48 48" width="48px" height="48px"><path fill="#373837" d="M4,23.5c0.197-2.547-0.495-6.445-0.5-9c-0.002-1.242,0.19-1.914,0.19-2.746	c0-0.384-0.19-0.465-0.19-1.254c0-1.617,0.025-3.21,1-4.5C5.48,4.703,7.375,3.5,9,3.5c2,0,3.375-0.04,5,0	c3.127,0.078,5.797,0.278,8.31,0.247c1.188-0.014,2.341-0.278,3.491-0.265c2.314,0.025,4.606,0.286,7.174,0.265	C34.528,3.735,36.2,3.5,38,3.5c2.5,0,3.217,0.358,3.5,0.5c1,0.5,1.87,1.675,2,2c1,2.5,1,5.519,1,9.5c0,3.171-0.505,6.582-0.5,10	c0.006,4.126,0.522,8.263,0.5,12c-0.008,1.306-0.307,3.061-0.92,4.215c-0.734,1.383-2.215,2.245-3.74,2.598	c-0.93,0.215-1.883,0.201-2.84,0.187c-0.613-0.009-1.227,0.02-1.837-0.016c-6.402-0.379-11.615-0.228-17.953-0.176	C16.707,44.312,15.509,44.5,15,44.5c-4.5,0-7,0-9.5-1.5c-0.262-0.157-1.363-1.726-1.5-2c-0.5-1-0.5-3.061-0.5-3.5	C3.5,31.5,3.679,27.638,4,23.5z"/><path fill="#010101" d="M37.701,45.007c-0.235,0-0.469-0.003-0.701-0.007c-0.23-0.004-0.451-0.001-0.672,0	c-0.401,0.004-0.798,0.006-1.194-0.017c-5.289-0.313-9.675-0.265-14.752-0.207l-3.168,0.032c-0.234,0.002-0.628,0.047-1.024,0.091	C15.733,44.95,15.272,45,15,45c-4.603,0-7.139,0-9.757-1.571c-0.414-0.248-1.576-1.976-1.69-2.205C3.096,40.31,3,38.694,3,37.5	c0-6.274,0.2-10.15,0.502-14.039l0,0c0.11-1.425-0.069-3.317-0.243-5.147C3.127,16.922,3.002,15.607,3,14.501	c-0.002-0.717,0.059-1.25,0.112-1.72c0.04-0.353,0.078-0.675,0.078-1.027c0-0.08-0.014-0.13-0.049-0.245	C3.082,11.31,3,11.039,3,10.5c0-1.567,0-3.344,1.101-4.801C5.114,4.357,7.122,3,9,3c0.707,0,1.336-0.005,1.925-0.01	c1.083-0.009,2.033-0.017,3.088,0.01c1.217,0.03,2.364,0.079,3.461,0.125c1.7,0.072,3.303,0.14,4.83,0.122	c0.543-0.007,1.099-0.07,1.635-0.131c0.607-0.069,1.234-0.14,1.867-0.134c1.041,0.011,2.054,0.068,3.125,0.128	c1.293,0.072,2.624,0.151,4.04,0.137c0.709-0.006,1.443-0.059,2.222-0.115C36.092,3.067,37.022,3,38,3	c2.618,0,3.393,0.387,3.724,0.553c1.157,0.579,2.084,1.869,2.24,2.262C45,8.404,45,11.535,45,15.5c0,1.567-0.119,3.151-0.244,4.827	C44.629,22.02,44.497,23.77,44.5,25.5c0.003,2.038,0.133,4.096,0.258,6.086c0.131,2.069,0.254,4.022,0.242,5.917	c-0.007,1.215-0.268,3.108-0.979,4.446c-0.734,1.383-2.218,2.422-4.069,2.851C39.203,44.973,38.446,45.007,37.701,45.007z M36.737,43.998c0.09,0,0.18,0,0.27,0.002c0.956,0.014,1.852,0.027,2.72-0.175c1.57-0.363,2.813-1.218,3.412-2.345	c0.585-1.103,0.854-2.795,0.861-3.983c0.011-1.86-0.11-3.797-0.24-5.848c-0.126-2.005-0.256-4.079-0.26-6.148	c-0.003-1.769,0.13-3.538,0.259-5.249C43.883,18.595,44,17.03,44,15.5c0-4.008,0-6.904-0.964-9.314	c-0.083-0.205-0.874-1.295-1.76-1.738C41.032,4.325,40.382,4,38,4c-0.941,0-1.854,0.066-2.735,0.13	c-0.795,0.057-1.545,0.112-2.286,0.118c-1.444,0.009-2.795-0.065-4.104-0.139c-1.061-0.06-2.062-0.116-3.079-0.127	c-0.595-0.014-1.14,0.06-1.744,0.128c-0.562,0.064-1.142,0.13-1.736,0.138c-1.547,0.02-3.171-0.05-4.885-0.123	C16.34,4.079,15.198,4.03,13.987,4c-1.042-0.026-1.984-0.019-3.054-0.01C10.342,3.995,9.71,4,9,4C7.521,4,5.753,5.17,4.899,6.301	C4,7.491,4,9.021,4,10.5c0,0.391,0.051,0.559,0.1,0.72c0.042,0.142,0.091,0.303,0.091,0.534c0,0.391-0.04,0.748-0.085,1.139	C4.053,13.359,3.998,13.84,4,14.499c0.002,1.06,0.125,2.352,0.254,3.72c0.178,1.873,0.361,3.809,0.244,5.319	C4.199,27.404,4,31.258,4,37.5c0,1.514,0.163,2.708,0.447,3.276c0.129,0.257,1.11,1.63,1.333,1.81C8.139,44,10.575,44,15,44	c0.247,0,0.665-0.048,1.079-0.094c0.437-0.048,0.869-0.095,1.127-0.097l3.164-0.032c5.099-0.057,9.498-0.106,14.822,0.209	c0.376,0.022,0.751,0.019,1.127,0.015C36.459,44,36.598,43.998,36.737,43.998z"/><path fill="#fff" d="M17.279,28.489c0.006,0.276-0.213,0.505-0.489,0.511c-0.003,0-0.007,0-0.011,0	c-0.271,0-0.494-0.217-0.5-0.489c-0.006-0.259-0.023-0.519-0.044-0.783c-0.063,0.076-0.115,0.159-0.186,0.231	C15.382,28.643,14.513,29,14,29c-2.073,0-2.645-0.202-3.398-1.198c-0.396-0.523-0.573-1.206-0.596-2.285	C9.999,25.209,9.999,24.87,9.999,24.5c0-0.251-0.025-0.463-0.052-0.68c-0.029-0.251-0.059-0.51-0.063-0.828	C9.878,22.49,9.988,19.786,10,19.479c0.013-0.276,0.263-0.5,0.521-0.479c0.275,0.011,0.49,0.244,0.479,0.52	c-0.042,1.027-0.12,3.072-0.115,3.459c0.003,0.278,0.03,0.504,0.056,0.724C10.971,23.958,11,24.205,11,24.5	c0,0.362,0,0.693,0.007,0.996c0.018,0.841,0.139,1.366,0.394,1.703C11.864,27.814,12.005,28,14,28c0.157,0,0.79-0.182,1.335-0.739	c0.477-0.487,0.71-1.086,0.694-1.783c0-0.006,0.003-0.012,0.003-0.018c-0.023-0.34-0.041-0.682-0.037-1.027	c0.002-0.203,0.024-0.749,0.05-1.362c0.035-0.83,0.075-1.786,0.074-2.155l0.002-0.53c0.003-0.285,0.005-0.551-0.003-0.875	c-0.006-0.276,0.213-0.505,0.488-0.511c0.252-0.007,0.506,0.213,0.512,0.489c0.008,0.334,0.006,0.61,0.003,0.905l-0.002,0.52	c0.001,0.376-0.039,1.352-0.074,2.199c-0.025,0.599-0.048,1.132-0.05,1.33c-0.007,0.724,0.069,1.468,0.143,2.188	C17.201,27.241,17.266,27.872,17.279,28.489z M26,26c0,2.289-2.565,3-3.5,3h-0.17c-0.051,0-0.102,0-0.151,0	c-0.421,0-0.769-0.011-1.122-0.121c-0.436-0.136-1.067-0.68-1.143-0.752c-0.007-0.001-0.044-0.017-0.086-0.038	c-0.126-0.063-0.293-0.153-0.465-0.287c-0.023,0.255-0.041,0.502-0.034,0.73c0.008,0.276-0.21,0.506-0.485,0.514	c-0.005,0-0.01,0-0.015,0c-0.27,0-0.492-0.214-0.5-0.486c-0.012-0.427,0.037-0.879,0.084-1.316c0.045-0.411,0.091-0.835,0.087-1.239	c-0.005-0.501-0.023-0.908-0.042-1.313c-0.021-0.456-0.042-0.908-0.044-1.48c-0.001-0.107,0.021-0.529,0.043-0.95	c0.021-0.394,0.042-0.787,0.042-0.886L18.494,20.6c-0.005-0.342-0.008-0.591,0.006-1.113c0.008-0.275,0.249-0.488,0.513-0.487	c0.276,0.007,0.494,0.237,0.487,0.513c-0.014,0.503-0.011,0.744-0.007,1.074l0.006,0.786c0.001,0.104-0.021,0.522-0.043,0.941	c-0.009,0.174-0.018,0.343-0.025,0.492c0.359-0.469,0.81-0.914,1.578-1.142c0.365-0.109,0.756-0.165,1.162-0.165	c1.295,0,2.188,0.796,2.604,1.271C25.624,23.736,26,24.238,26,26z M25,26c0-1.459-0.246-1.739-0.976-2.569	c-0.246-0.28-0.919-0.931-1.854-0.931c-0.31,0-0.604,0.042-0.876,0.123c-0.543,0.162-0.855,0.478-1.184,0.936	c-0.412,0.572-0.612,1.043-0.612,1.441l0.001,0.5c0,1.308,0.448,1.532,0.775,1.695c0.115,0.058,0.235,0.117,0.336,0.216	c0.116,0.113,0.582,0.464,0.744,0.514C21.603,28.003,21.904,28,22.328,28H22.5C22.828,28,25,27.627,25,26z M33.433,27.47	c0-0.276-0.214-0.549-0.49-0.549c-0.275,0-0.489,0.175-0.489,0.452C32.344,27.555,31.524,28,30.5,28	c-1.044,0-1.737-0.313-2.12-0.958c-0.168-0.282-0.313-0.579-0.362-1.221c0.564,0.008,1.164,0.027,1.763,0.046	c0.781,0.025,1.563,0.051,2.271,0.051c0.014,0,0.027,0,0.037,0c0.4,0,0.821,0.073,0.825,0.074c0.131,0.024,0.273-0.009,0.383-0.089	c0.11-0.081,0.183-0.204,0.2-0.339c0.027-0.214,0.154-1.311-0.054-1.859C32.604,21.5,31.389,21.5,30.5,21.5	c-0.964,0-1.48,0.319-1.789,0.51c-0.047,0.029-0.088,0.055-0.125,0.074c-0.274,0.14-0.543,0.347-0.799,0.616	C27,23.526,27,24.272,27,25.318l0,0l0,0l0,0c0,1.139,0.191,1.682,0.521,2.235C28.091,28.514,29.094,29,30.5,29	C31.856,29,33.433,28.332,33.433,27.47z M32.079,24.918c-0.705,0.015-1.485-0.024-2.267-0.05c-0.615-0.02-1.23-0.04-1.81-0.047	c0.015-0.644,0.091-0.994,0.509-1.432c0.178-0.187,0.355-0.327,0.529-0.415c0.059-0.03,0.123-0.069,0.195-0.114	c0.247-0.152,0.585-0.36,1.265-0.36c0.79,0,1.415,0,2.007,1.56c0.054,0.141,0.063,0.504,0.042,0.88	c-0.143-0.013-0.302-0.021-0.46-0.021C32.086,24.918,32.083,24.918,32.079,24.918z M38.506,21.664c-0.004,0-0.008,0-0.013,0	c-0.017-0.002-0.067-0.018-0.104-0.03c-0.151-0.046-0.376-0.119-0.684-0.075c-0.514,0.075-1.194,0.226-1.563,0.555	c-0.038,0.033-0.098,0.091-0.15,0.139c0.001-0.069-0.001-0.136,0.006-0.21c0.024-0.275-0.179-0.518-0.454-0.542	c-0.27-0.023-0.519,0.179-0.542,0.454c-0.028,0.315-0.012,0.592,0.007,0.868c0.015,0.228,0.03,0.456,0.008,0.715	c-0.029,0.324,0.012,0.791,0.052,1.242c0.021,0.237,0.04,0.458,0.044,0.618c0.01,0.427,0.046,2.4,0.032,3.091	c-0.005,0.276,0.214,0.504,0.49,0.51c0.003,0,0.007,0,0.01,0c0.271,0,0.494-0.217,0.5-0.49c0.014-0.701-0.022-2.7-0.032-3.134	c-0.004-0.177-0.025-0.421-0.048-0.683c-0.017-0.191-0.035-0.405-0.047-0.601c0.007-0.024,0.02-0.045,0.023-0.071	c0.077-0.556,0.574-0.991,0.81-1.198c0.079-0.065,0.44-0.193,0.998-0.274c0.078-0.011,0.129,0.004,0.239,0.039	c0.113,0.035,0.261,0.076,0.425,0.075c0.275-0.007,0.497-0.236,0.49-0.512C38.996,21.879,38.776,21.664,38.506,21.664z"/></svg>